# xmcd
#
# Track frame offsets: 
#        150
#        22187
#        43169
#        64389
#        97587
#        332550
#
# Disc length: 4440 seconds
#
# Revision: 1
# Processed by: cddbd v1.5.2PL0 Copyright (c) Steve Scherf et al.
# Submitted via: ExactAudioCopy v1.0b6
#
DISCID=4c115606
DTITLE=石井竜也 - RIVER 〜GUNDAM SEED EDITION〜 初回限定盤 CCCD SRCL-5573
DYEAR=2003
DGENRE=Anime
TTITLE0=RIVER
TTITLE1=RIVER 〜remix〜
TTITLE2=RIVER 〜piano instrumental〜
TTITLE3=RIVER 〜backtracks〜
TTITLE4=data
TTITLE5=data
EXTD=YEAR: 2003
EXTT0=
EXTT1=
EXTT2=
EXTT3=
EXTT4=
EXTT5=
PLAYORDER=
